<svg width="84" height="84" viewBox="0 0 84 84" fill="none" xmlns="http://www.w3.org/2000/svg">
<circle cx="42" cy="42" r="42" fill="url(#paint0_linear_1_616)"/>
<path d="M42.3347 45.117C42.1593 45.1003 41.9488 45.1003 41.7558 45.117C37.5801 44.9837 34.2641 41.7337 34.2641 37.7337C34.2466 33.6503 37.738 30.3337 42.0365 30.3337C46.3349 30.3337 49.8264 33.6503 49.8264 37.7337C49.8264 41.7337 46.4929 44.9837 42.3347 45.117Z" stroke="#DF0404" stroke-width="2.5" stroke-linecap="round" stroke-linejoin="round"/>
<path d="M42.036 63.3498C38.8428 63.3498 35.6672 62.5832 33.2461 61.0498C29.0002 58.3498 29.0002 53.9498 33.2461 51.2665C38.0709 48.1998 45.9836 48.1998 50.8084 51.2665" stroke="#DF0404" stroke-width="2.5" stroke-linecap="round" stroke-linejoin="round"/>
<g clip-path="url(#clip0_1_616)">
<mask id="path-4-inside-1_1_616" fill="white">
<path fill-rule="evenodd" clip-rule="evenodd" d="M55.6569 63.5961C55.9497 63.889 55.9497 64.3638 55.6569 64.6567C55.364 64.9496 54.8891 64.9496 54.5962 64.6567L50.0001 60.0606L45.4038 64.6569C45.1109 64.9497 44.636 64.9497 44.3431 64.6569C44.0503 64.364 44.0503 63.8891 44.3431 63.5962L48.9394 58.9999L44.3431 54.4037C44.0503 54.1108 44.0503 53.6359 44.3431 53.343C44.636 53.0501 45.1109 53.0501 45.4038 53.343L50.0001 57.9393L54.5962 53.3431C54.8891 53.0503 55.364 53.0503 55.6569 53.3431C55.9497 53.636 55.9497 54.1109 55.6569 54.4038L51.0607 58.9999L55.6569 63.5961Z"/>
</mask>
<path fill-rule="evenodd" clip-rule="evenodd" d="M55.6569 63.5961C55.9497 63.889 55.9497 64.3638 55.6569 64.6567C55.364 64.9496 54.8891 64.9496 54.5962 64.6567L50.0001 60.0606L45.4038 64.6569C45.1109 64.9497 44.636 64.9497 44.3431 64.6569C44.0503 64.364 44.0503 63.8891 44.3431 63.5962L48.9394 58.9999L44.3431 54.4037C44.0503 54.1108 44.0503 53.6359 44.3431 53.343C44.636 53.0501 45.1109 53.0501 45.4038 53.343L50.0001 57.9393L54.5962 53.3431C54.8891 53.0503 55.364 53.0503 55.6569 53.3431C55.9497 53.636 55.9497 54.1109 55.6569 54.4038L51.0607 58.9999L55.6569 63.5961Z" fill="#DF0404"/>
<path d="M55.6569 64.6567L54.9497 63.9496L54.9498 63.9496L55.6569 64.6567ZM55.6569 63.5961L54.9498 64.3032L54.9497 64.3032L55.6569 63.5961ZM54.5962 64.6567L55.3033 63.9496H55.3033L54.5962 64.6567ZM50.0001 60.0606L49.293 59.3535L50.0001 58.6464L50.7072 59.3535L50.0001 60.0606ZM45.4038 64.6569L44.6967 63.9497L44.6967 63.9497L45.4038 64.6569ZM44.3431 64.6569L45.0503 63.9497L45.0503 63.9497L44.3431 64.6569ZM44.3431 63.5962L45.0503 64.3033L45.0503 64.3033L44.3431 63.5962ZM48.9394 58.9999L49.6465 58.2928L50.3536 58.9999L49.6465 59.707L48.9394 58.9999ZM44.3431 54.4037L45.0503 53.6966L45.0503 53.6966L44.3431 54.4037ZM44.3431 53.343L45.0503 54.0501L45.0503 54.0501L44.3431 53.343ZM45.4038 53.343L44.6967 54.0501L44.6967 54.0501L45.4038 53.343ZM50.0001 57.9393L50.7072 58.6464L50.0001 59.3535L49.293 58.6464L50.0001 57.9393ZM54.5962 53.3431L53.8891 52.636L53.8891 52.636L54.5962 53.3431ZM55.6569 53.3431L56.364 52.636L56.364 52.636L55.6569 53.3431ZM55.6569 54.4038L56.364 55.1109L56.364 55.1109L55.6569 54.4038ZM51.0607 58.9999L50.3536 59.707L49.6465 58.9999L50.3536 58.2928L51.0607 58.9999ZM54.9498 63.9496C54.8521 64.0473 54.8521 64.2055 54.9498 64.3032L56.364 62.889C57.0474 63.5724 57.0474 64.6804 56.364 65.3638L54.9498 63.9496ZM55.3033 63.9496C55.2057 63.852 55.0474 63.852 54.9497 63.9496L56.364 65.3638C55.6805 66.0473 54.5725 66.0473 53.8891 65.3638L55.3033 63.9496ZM50.7072 59.3535L55.3033 63.9496L53.8891 65.3638L49.293 60.7677L50.7072 59.3535ZM44.6967 63.9497L49.293 59.3535L50.7072 60.7677L46.1109 65.364L44.6967 63.9497ZM45.0503 63.9497C44.9526 63.8521 44.7943 63.8521 44.6967 63.9497L46.1109 65.364C45.4275 66.0474 44.3195 66.0474 43.636 65.364L45.0503 63.9497ZM45.0503 64.3033C45.1479 64.2057 45.1479 64.0474 45.0503 63.9497L43.636 65.364C42.9526 64.6805 42.9526 63.5725 43.636 62.8891L45.0503 64.3033ZM49.6465 59.707L45.0503 64.3033L43.636 62.8891L48.2323 58.2928L49.6465 59.707ZM45.0503 53.6966L49.6465 58.2928L48.2323 59.707L43.636 55.1108L45.0503 53.6966ZM45.0503 54.0501C45.1479 53.9525 45.1479 53.7942 45.0503 53.6966L43.636 55.1108C42.9526 54.4274 42.9526 53.3193 43.636 52.6359L45.0503 54.0501ZM44.6967 54.0501C44.7943 54.1478 44.9526 54.1478 45.0503 54.0501L43.636 52.6359C44.3195 51.9525 45.4275 51.9525 46.1109 52.6359L44.6967 54.0501ZM49.293 58.6464L44.6967 54.0501L46.1109 52.6359L50.7072 57.2322L49.293 58.6464ZM55.3033 54.0503L50.7072 58.6464L49.293 57.2322L53.8891 52.636L55.3033 54.0503ZM54.9497 54.0503C55.0474 54.1479 55.2057 54.1479 55.3033 54.0503L53.8891 52.636C54.5725 51.9526 55.6805 51.9526 56.364 52.636L54.9497 54.0503ZM54.9497 53.6967C54.8521 53.7943 54.8521 53.9526 54.9497 54.0503L56.364 52.636C57.0474 53.3195 57.0474 54.4275 56.364 55.1109L54.9497 53.6967ZM50.3536 58.2928L54.9497 53.6967L56.364 55.1109L51.7678 59.707L50.3536 58.2928ZM54.9497 64.3032L50.3536 59.707L51.7678 58.2928L56.364 62.889L54.9497 64.3032Z" fill="#DF0404" mask="url(#path-4-inside-1_1_616)"/>
</g>
<defs>
<linearGradient id="paint0_linear_1_616" x1="74.55" y1="2.14197e-06" x2="42" y2="84" gradientUnits="userSpaceOnUse">
<stop stop-color="#FFA3CF"/>
<stop offset="1" stop-color="#FFD5F3"/>
</linearGradient>
<clipPath id="clip0_1_616">
<rect width="8" height="8" fill="white" transform="matrix(-1 0 0 1 54 55)"/>
</clipPath>
</defs>
</svg>
