<svg width="4" height="14" viewBox="0 0 4 14" fill="none" xmlns="http://www.w3.org/2000/svg">
<path d="M3.95209 11.8746C3.95209 12.2799 3.7545 12.6686 3.40278 12.9552C3.05107 13.2418 2.57403 13.4028 2.07663 13.4028C1.57923 13.4028 1.1022 13.2418 0.750481 12.9552C0.398764 12.6686 0.201172 12.2799 0.201172 11.8746C0.201172 11.4694 0.398764 11.0807 0.750481 10.7941C1.1022 10.5075 1.57923 10.3465 2.07663 10.3465C2.57403 10.3465 3.05107 10.5075 3.40278 10.7941C3.7545 11.0807 3.95209 11.4694 3.95209 11.8746ZM3.95209 6.78088C3.95209 7.18616 3.7545 7.57485 3.40278 7.86143C3.05107 8.14801 2.57403 8.30901 2.07663 8.30901C1.57923 8.30901 1.1022 8.14801 0.750481 7.86143C0.398764 7.57485 0.201172 7.18616 0.201172 6.78088C0.201172 6.37559 0.398764 5.98691 0.750481 5.70033C1.1022 5.41375 1.57923 5.25275 2.07663 5.25275C2.57403 5.25275 3.05107 5.41375 3.40278 5.70033C3.7545 5.98691 3.95209 6.37559 3.95209 6.78088ZM3.95209 1.68712C3.95209 2.0924 3.7545 2.48109 3.40278 2.76767C3.05107 3.05425 2.57403 3.21525 2.07663 3.21525C1.57923 3.21525 1.1022 3.05425 0.750481 2.76767C0.398764 2.48109 0.201172 2.0924 0.201172 1.68712C0.201172 1.28183 0.398764 0.893147 0.750481 0.606567C1.1022 0.319988 1.57923 0.158989 2.07663 0.158989C2.57403 0.158989 3.05107 0.319988 3.40278 0.606567C3.7545 0.893147 3.95209 1.28183 3.95209 1.68712Z" fill="black"/>
</svg>
